<?xml version="1.0" standalone="no"?>
<!DOCTYPE svg PUBLIC "-//W3C//DTD SVG 20010904//EN"
 "http://www.w3.org/TR/2001/REC-SVG-20010904/DTD/svg10.dtd">
<svg version="1.0" xmlns="http://www.w3.org/2000/svg"
 width="500.000000pt" height="500.000000pt" viewBox="0 0 500.000000 500.000000"
 preserveAspectRatio="xMidYMid meet">
<metadata>
Created by potrace 1.14, written by Peter Selinger 2001-2017
</metadata>
<g transform="translate(0.000000,500.000000) scale(0.100000,-0.100000)"
fill="#000000" stroke="none">
<path d="M4483 4663 c-21 -27 -109 -119 -196 -205 -143 -143 -157 -160 -147
-179 12 -22 7 -49 -10 -49 -5 0 -10 9 -10 19 0 11 -4 22 -8 25 -9 5 -178 -122
-228 -172 -24 -24 -257 -164 -313 -189 -31 -14 -63 -31 -71 -38 -17 -15 -222
-97 -290 -116 -25 -7 -49 -14 -55 -15 -135 -38 -219 -53 -390 -69 -38 -3 -86
-8 -105 -10 -19 -2 -64 -7 -100 -10 -36 -4 -99 -20 -140 -36 -81 -31 -217
-119 -212 -138 1 -6 -6 -11 -15 -11 -10 0 -31 -11 -48 -24 -29 -23 -29 -23 -7
-30 12 -4 22 -12 22 -18 0 -6 -7 -7 -18 -3 -38 16 -48 14 -65 -10 l-18 -26 30
-10 c17 -6 29 -15 26 -19 -3 -5 -21 -2 -40 6 -32 13 -35 12 -48 -7 -12 -17
-22 -19 -63 -14 -27 3 -62 8 -79 11 -33 7 -216 7 -255 0 -129 -24 -147 -21
-221 37 -19 15 -49 31 -67 36 -29 9 -33 7 -53 -26 -19 -30 -21 -40 -12 -64 9
-24 8 -32 -13 -56 -13 -15 -24 -31 -24 -34 0 -9 -56 4 -104 25 l-39 16 7 -41
c4 -23 13 -53 20 -67 13 -24 11 -30 -26 -78 -21 -29 -39 -61 -39 -71 0 -10 1
-34 2 -53 0 -20 -8 -51 -19 -70 -27 -46 -46 -123 -38 -154 3 -14 15 -27 25
-31 10 -3 31 -23 45 -45 14 -22 32 -40 40 -40 7 0 24 -8 37 -19 13 -10 37 -22
53 -27 27 -9 23 -12 -65 -38 -52 -16 -103 -37 -114 -47 -17 -15 -31 -18 -74
-13 -39 3 -60 0 -77 -11 -14 -9 -29 -13 -34 -10 -12 8 -22 -11 -26 -51 -1 -18
-8 -42 -13 -53 -20 -36 -12 -62 31 -102 31 -28 49 -38 65 -34 12 3 34 0 49 -5
19 -8 36 -7 61 2 27 10 37 10 51 0 59 -43 78 -51 106 -46 17 2 50 6 72 8 63 6
136 34 162 62 25 26 45 29 137 15 33 -5 80 -12 105 -16 25 -3 72 -9 105 -14
69 -10 85 -4 151 65 58 59 75 66 168 69 83 2 143 -13 251 -65 43 -20 343 -138
410 -161 30 -10 112 -13 320 -14 l281 0 56 -34 c88 -53 134 -97 211 -201 109
-145 218 -280 227 -280 13 0 116 -131 138 -176 22 -44 50 -151 46 -177 -12
-80 -12 -101 -4 -123 6 -14 14 -23 19 -20 5 3 18 -9 29 -28 18 -31 50 -46 98
-46 15 0 51 48 56 75 1 11 8 26 15 32 15 17 13 26 -30 113 -22 45 -39 96 -43
129 -3 30 -16 77 -29 105 -25 54 -55 140 -55 157 0 6 -19 30 -43 52 -33 33
-46 56 -61 107 -37 133 -36 134 46 50 40 -41 100 -107 133 -145 33 -39 83 -94
112 -123 29 -29 64 -74 77 -100 23 -46 62 -154 70 -197 17 -87 41 -135 68
-135 9 0 29 -11 44 -25 l27 -25 37 21 c47 26 57 49 54 117 -2 40 -13 72 -47
135 -76 141 -85 159 -146 289 -53 112 -63 128 -83 125 -20 -2 -29 14 -86 148
-35 83 -72 168 -82 190 -9 22 -34 81 -55 130 -21 50 -46 102 -57 117 -10 14
-18 31 -18 37 0 6 -45 58 -99 115 -106 112 -125 150 -101 197 28 54 181 277
220 322 23 26 61 59 85 72 41 25 49 25 183 23 147 -3 167 2 160 38 -3 16 -17
21 -88 28 -47 5 -130 9 -185 10 -92 0 -104 -2 -152 -28 -28 -16 -78 -55 -111
-87 -60 -59 -83 -72 -156 -89 -75 -16 -107 -21 -194 -25 l-87 -4 90 25 c50 14
121 34 159 44 152 41 293 135 370 245 26 37 46 69 44 70 -2 1 -37 -14 -78 -34
-65 -32 -143 -61 -160 -60 -3 0 -18 -4 -35 -10 l-30 -11 24 18 c13 11 49 27
80 37 31 10 80 33 109 51 29 19 54 34 57 34 7 0 42 29 82 68 28 28 162 272
149 272 -3 0 -29 -21 -59 -47 -30 -27 -83 -63 -118 -82 l-63 -34 34 41 c18 23
36 42 40 42 16 0 144 116 180 163 38 51 83 146 94 198 3 13 12 49 20 79 9 30
16 55 16 56 0 0 -37 -35 -81 -78 -45 -43 -84 -77 -86 -74 -9 9 32 74 84 129
49 53 64 76 115 171 15 28 26 81 33 156 1 14 6 54 9 90 l7 65 -31 -35 c-17
-19 -38 -45 -47 -57 -14 -22 -41 -34 -28 -13 3 5 8 37 10 72 3 35 7 82 10 106
3 23 3 42 1 42 -3 0 -22 -21 -43 -47z m-341 -518 c-4 -22 -82 -98 -82 -80 0
17 67 105 80 105 4 0 5 -11 2 -25z m101 -64 c-2 -9 -14 -21 -27 -27 -21 -10
-22 -8 -18 15 6 30 33 55 43 39 4 -6 5 -18 2 -27z m-275 -318 c-25 -52 -38
-68 -71 -85 -21 -10 -41 -17 -43 -15 -5 4 105 107 114 107 2 0 2 -3 0 -7z
m-400 -45 c-4 -27 -28 -36 -28 -10 0 20 8 32 22 32 5 0 8 -10 6 -22z m-59 -1
c-12 -10 -135 -64 -138 -61 -1 1 8 14 21 28 14 16 38 27 62 30 21 3 41 8 44
11 3 3 8 3 10 0 3 -3 3 -6 1 -8z m569 -25 c-6 -7 -20 -18 -30 -23 -26 -14 -24
15 3 42 17 17 23 19 30 8 4 -8 3 -19 -3 -27z m-1170 -136 c6 -6 -38 -4 -118 4
-8 1 -4 5 10 9 26 7 96 -1 108 -13z m-158 5 c0 -13 -29 -35 -37 -28 -7 8 15
37 28 37 5 0 9 -4 9 -9z m218 -13 c-2 -5 -8 -9 -13 -9 -5 0 -11 4 -13 9 -1 5
4 9 13 9 9 0 14 -4 13 -9z m-383 -62 c11 -3 27 -5 35 -5 9 -1 11 -4 4 -11 -11
-11 -155 7 -169 22 -9 10 72 6 130 -6z m840 -6 c-16 -11 -43 -20 -60 -20 l-30
0 35 18 c19 9 46 18 60 20 25 2 24 2 -5 -18z m-195 -40 c0 -14 -58 -42 -78
-38 -11 2 -1 11 28 26 52 25 50 25 50 12z m-801 -30 c56 -10 69 -16 58 -27 -4
-3 -26 0 -49 7 -24 7 -59 15 -78 17 -19 2 -39 9 -45 15 -7 8 0 9 25 4 19 -4
59 -11 89 -16z m1281 -15 c-24 -26 -76 -45 -120 -45 -19 0 -12 6 30 27 98 48
123 53 90 18z m160 1 c0 -7 -9 -16 -20 -19 -25 -6 -26 8 -2 22 22 13 22 13 22
-3z m-1075 -6 c3 -5 -3 -10 -14 -10 -12 0 -21 5 -21 10 0 6 6 10 14 10 8 0 18
-4 21 -10z m-453 -57 c18 -9 27 -18 21 -20 -7 -3 -22 1 -35 8 -30 17 -47 21
-80 20 -16 0 -28 5 -28 11 0 14 79 2 122 -19z m-109 -48 c9 -4 17 -12 17 -17
0 -5 -3 -8 -7 -6 -5 2 -25 10 -45 18 -21 8 -38 17 -38 21 0 7 34 -1 73 -16z
m1047 3 c-20 -16 -70 -25 -70 -13 0 9 50 31 71 31 21 0 21 0 -1 -18z m-665 2
c-3 -5 -13 -10 -21 -10 -8 0 -12 5 -9 10 3 6 13 10 21 10 8 0 12 -4 9 -10z
m402 -54 c-8 -7 -28 -11 -44 -10 -15 1 -37 3 -47 3 -29 1 -14 10 30 17 21 3
41 7 42 9 2 2 11 1 19 -2 14 -6 14 -7 0 -17z m-567 -22 l25 -6 -24 -12 c-20
-11 -29 -11 -52 3 -49 28 -34 32 51 15z m1040 -32 c0 -15 -38 -30 -91 -36
l-54 -6 50 24 c50 24 95 33 95 18z m-376 -38 c27 -10 -21 -41 -55 -36 l-29 4
32 18 c18 10 34 18 35 19 1 0 8 -2 17 -5z m516 -2 c0 -18 -27 -44 -43 -41 -16
4 -16 6 -2 27 16 21 45 31 45 14z m-790 -11 c10 -1 11 -4 3 -12 -12 -12 -109
-3 -117 10 -4 5 53 7 114 2z m-192 -86 c59 -18 61 -21 17 -29 -19 -4 -47 3
-82 20 -29 13 -53 26 -53 29 0 6 61 -4 118 -20z m282 -35 c18 -12 2 -12 -25 0
-13 6 -15 9 -5 9 8 0 22 -4 30 -9z m330 0 c3 0 -6 -7 -20 -15 -27 -16 -61 -18
-100 -8 -43 12 72 34 120 23z m160 -49 c0 -11 -28 -35 -46 -37 -18 -3 -18 5 3
28 17 19 43 24 43 9z m344 -82 c-10 -12 -30 -34 -44 -48 -14 -14 -36 -41 -50
-59 -20 -27 -31 -33 -54 -30 -29 3 -29 3 20 37 27 19 51 36 53 38 14 10 -13
12 -60 3 -79 -16 -248 -22 -294 -11 l-40 9 37 1 c20 1 48 5 61 10 13 5 64 12
113 16 115 8 145 13 213 35 31 10 58 18 60 19 2 1 -4 -9 -15 -20z m-2294 -264
c-6 -8 -33 -17 -58 -20 -77 -11 -91 -13 -115 -21 -15 -4 -10 3 18 25 32 27 47
32 82 30 31 -2 48 2 61 14 15 16 17 16 20 2 2 -9 -2 -22 -8 -30z"/>
<path d="M4365 4602 c-23 -20 -57 -49 -77 -64 -20 -15 -42 -33 -50 -40 -7 -7
-58 -47 -113 -89 -254 -193 -579 -374 -855 -477 -231 -87 -395 -120 -715 -146
-143 -12 -159 -16 -275 -68 -76 -34 -187 -157 -247 -274 -29 -56 -53 -107 -53
-113 0 -6 35 24 78 67 119 121 208 181 345 232 76 29 218 58 316 65 187 13
270 22 328 36 77 17 326 110 398 149 39 21 111 59 160 85 111 58 173 102 395
280 158 126 318 275 393 363 37 43 21 40 -28 -6z"/>
<path d="M1070 1843 c-8 -3 -61 -23 -117 -45 -90 -35 -103 -42 -112 -70 -6
-17 -10 -33 -8 -35 2 -2 30 6 63 16 32 11 60 19 61 17 1 -1 -15 -42 -36 -92
-41 -95 -111 -303 -111 -330 0 -9 6 -14 13 -11 6 2 40 14 75 27 34 12 62 27
62 32 0 11 33 88 62 143 37 71 163 255 172 252 10 -3 20 -20 32 -52 12 -33 15
-48 21 -109 5 -54 4 -58 -13 -52 -11 3 -38 9 -62 15 l-42 9 -30 -45 c-17 -25
-30 -46 -28 -47 2 -1 22 -14 45 -29 24 -15 53 -27 65 -27 28 0 136 110 162
164 27 56 33 166 12 220 -19 48 -41 62 -83 51 -54 -13 -164 -102 -205 -165
-28 -44 -27 -18 3 75 16 50 29 91 29 93 0 3 -13 1 -30 -5z"/>
<path d="M2290 1842 c-48 -14 -53 -75 -9 -97 28 -15 33 -15 55 0 13 8 24 19
25 23 0 4 2 15 4 24 5 27 -43 60 -75 50z"/>
<path d="M2814 1843 c-25 -5 -45 -43 -37 -71 14 -56 112 -39 113 20 0 16 -38
60 -49 57 -3 -1 -16 -4 -27 -6z"/>
<path d="M1795 1740 c-23 -4 -30 -11 -32 -32 -1 -15 -10 -39 -20 -54 -17 -27
-17 -28 0 -21 17 6 18 2 13 -48 -7 -69 4 -99 46 -125 45 -27 53 -26 83 17 l25
37 -25 14 c-14 7 -26 20 -27 30 -4 47 -4 58 4 75 5 10 14 17 21 16 27 -3 35 2
39 26 3 14 1 26 -3 26 -5 1 -19 2 -31 3 -13 0 -24 9 -28 21 -5 21 -18 24 -65
15z"/>
<path d="M2113 1694 c-13 -13 -24 -31 -24 -41 -1 -10 -4 -5 -8 12 -5 25 -12
31 -46 36 -22 4 -44 4 -48 0 -6 -7 -12 -121 -8 -184 2 -33 47 -67 89 -67 34 0
40 4 55 35 17 35 17 36 -8 45 -28 11 -34 52 -11 82 11 15 15 16 32 3 30 -23
32 -21 50 50 1 6 5 17 9 26 5 13 -1 18 -26 21 -25 4 -38 0 -56 -18z"/>
<path d="M1471 1675 c-48 -44 -60 -74 -55 -150 3 -61 18 -85 55 -85 9 0 37 22
62 49 25 27 48 47 50 44 3 -2 3 -26 1 -53 l-4 -48 43 11 c23 5 47 14 53 18 7
6 10 41 9 95 -3 103 -20 128 -93 139 -26 3 -55 8 -64 11 -10 3 -33 -9 -57 -31z
m94 -59 c18 -13 17 -15 -13 -57 -18 -23 -32 -39 -33 -33 -8 85 -7 104 10 104
9 0 26 -6 36 -14z"/>
<path d="M2346 1701 c-3 -4 -33 -16 -66 -25 -33 -9 -60 -21 -60 -27 0 -5 0
-12 0 -16 0 -5 10 -8 23 -8 21 0 22 -4 21 -94 l-1 -93 30 6 c16 3 40 6 54 6
l24 0 -3 130 c-2 118 -7 146 -22 121z"/>
<path d="M2451 1666 c-18 -71 -17 -73 34 -70 24 2 47 -1 50 -5 3 -5 -15 -35
-40 -67 -25 -31 -45 -61 -45 -65 0 -4 28 -8 63 -9 96 -2 109 -5 129 -30 21
-26 22 -25 54 32 13 25 13 31 -2 53 -18 28 -41 37 -91 37 -31 0 -33 2 -21 14
8 8 29 23 48 33 19 10 37 24 40 32 4 8 12 25 19 37 7 13 11 25 9 27 -2 2 -48
6 -103 9 -55 4 -107 9 -116 11 -13 4 -19 -5 -28 -39z"/>
<path d="M2860 1695 c-14 -7 -41 -16 -60 -20 -19 -4 -41 -12 -47 -17 -22 -18
-15 -38 13 -38 l25 0 -3 -90 -3 -91 50 7 c28 3 53 8 56 10 5 3 0 245 -5 251 0
1 -12 -5 -26 -12z"/>
<path d="M3025 1678 c-21 -18 -44 -46 -51 -63 -18 -43 -10 -146 13 -162 19
-14 49 -17 55 -5 2 4 24 27 50 50 l46 44 -5 -55 -4 -55 54 15 54 15 -2 91 c-2
83 -5 93 -28 113 -14 12 -46 25 -72 29 -26 3 -53 9 -60 11 -7 3 -30 -10 -50
-28z m86 -58 c17 -10 18 -13 5 -38 -8 -15 -22 -35 -32 -44 -18 -16 -19 -14
-21 38 -2 58 7 65 48 44z"/>
<path d="M1837 1096 c-35 -29 -107 -150 -79 -133 31 20 217 24 327 8 39 -6 73
-11 78 -11 18 0 -225 -340 -244 -340 -5 0 -27 9 -49 20 l-39 20 -13 -22 c-35
-63 -35 -62 -9 -85 31 -29 70 -29 107 -1 38 29 43 36 183 213 150 189 152 191
197 199 40 8 45 12 85 66 45 61 46 60 -23 53 -99 -10 -169 -6 -283 13 -58 10
-226 10 -238 0z"/>
<path d="M2685 1076 c-16 -16 -22 -31 -18 -45 6 -25 40 -51 65 -51 24 0 58 35
58 60 0 26 -34 60 -60 60 -12 0 -32 -11 -45 -24z"/>
<path d="M3288 1083 l-58 -15 -1 -72 c0 -39 -1 -110 -3 -159 -4 -100 11 -143
58 -166 27 -13 30 -11 64 23 33 35 34 37 16 51 -10 8 -23 15 -28 15 -7 0 -1
214 10 303 2 20 3 37 2 36 -2 -1 -29 -8 -60 -16z"/>
<path d="M3476 1085 c-12 -9 -19 -27 -19 -45 0 -56 64 -79 103 -38 50 54 -25
127 -84 83z"/>
<path d="M2520 940 c-11 -11 -20 -30 -21 -42 -1 -19 -3 -17 -11 9 -11 32 -30
43 -80 43 -27 0 -28 -2 -30 -52 -4 -140 1 -172 27 -195 15 -13 36 -23 48 -24
12 0 30 -2 40 -4 14 -3 24 8 37 38 18 39 18 42 2 46 -39 8 -47 35 -27 84 7 18
18 18 57 2 13 -5 19 4 32 46 12 41 12 55 3 61 -22 14 -57 8 -77 -12z"/>
<path d="M2973 949 c-26 -10 -100 -106 -103 -134 -4 -39 0 -100 8 -112 4 -7
21 -15 37 -19 25 -4 38 1 72 30 22 20 43 36 46 36 2 0 5 -34 6 -76 2 -75 1
-76 -21 -70 -13 3 -28 6 -34 6 -5 0 -21 10 -34 22 l-23 22 -27 -31 c-40 -44
-31 -86 21 -107 68 -27 104 -21 154 25 49 46 61 74 70 174 17 182 3 214 -103
231 -21 3 -39 7 -42 9 -3 1 -15 -1 -27 -6z m51 -84 c16 -12 17 -18 7 -44 -7
-16 -23 -39 -36 -51 l-23 -21 1 69 c0 74 7 80 51 47z"/>
<path d="M4177 935 c-35 -25 -50 -24 -40 1 7 18 -12 18 -71 -2 l-47 -16 2
-124 1 -124 52 6 c28 4 53 8 56 11 3 3 5 39 6 81 2 106 2 109 19 116 33 12 50
-118 26 -202 l-10 -33 47 27 c26 14 52 32 59 38 26 24 34 189 11 212 -8 8 -28
18 -45 23 -26 7 -37 5 -66 -14z"/>
<path d="M4443 948 c-10 -4 -31 -18 -46 -31 -26 -22 -28 -30 -30 -93 -1 -38 2
-81 6 -96 21 -80 178 -72 216 10 15 32 15 32 -19 16 -26 -14 -33 -13 -65 2
-20 9 -34 18 -33 20 2 1 21 5 43 8 59 7 95 26 96 50 0 12 2 32 3 44 5 41 -23
63 -91 71 -34 4 -69 4 -80 -1z m69 -80 c22 -36 17 -53 -19 -56 -26 -3 -31 0
-28 15 2 10 4 28 4 41 1 12 7 22 15 22 7 0 20 -10 28 -22z"/>
<path d="M2713 924 c-35 -13 -63 -20 -63 -16 0 12 -20 -22 -20 -35 0 -8 12
-13 28 -13 l27 0 -1 -96 -1 -96 48 5 c27 3 53 8 58 11 7 5 8 131 1 259 0 10
-5 8 -77 -19z"/>
<path d="M3517 929 c-27 -11 -59 -21 -70 -23 -14 -2 -23 -11 -25 -24 -3 -18 2
-22 22 -22 l26 0 0 -96 0 -96 53 6 c28 3 55 6 58 6 3 0 5 21 3 48 -1 26 -3 86
-3 135 -1 48 -4 87 -8 86 -5 0 -30 -9 -56 -20z"/>
<path d="M3731 913 c-98 -83 -98 -174 1 -224 119 -61 267 56 227 178 -6 18
-19 35 -30 38 -13 4 -18 13 -15 23 5 15 -4 17 -68 19 -71 1 -76 0 -115 -34z
m104 -48 c18 -17 25 -35 25 -64 0 -59 -8 -73 -33 -59 -52 27 -74 78 -56 125
11 30 34 29 64 -2z"/>
</g>
</svg>
